<svg width="54" height="54" fill="none" xmlns="http://www.w3.org/2000/svg"><g clip-path="url(#a)" fill="#fff"><path d="M26.156.5c-.666.198-1.468.938-1.76 1.625-.281.656-.313 1.615-.073 2.188l.167.395-1.563 1.532c-.864.854-1.614 1.562-1.666 1.573-.053.02-.292-.032-.521-.125-.615-.25-1.604-.22-2.23.083-.645.292-1.312 1.01-1.562 1.656-.23.604-.177 1.719.104 2.313.698 1.448 2.5 2.073 3.948 1.364a2.974 2.974 0 0 0 1.48-3.677l-.157-.437 1.615-1.552 1.614-1.552.542.187c.302.104.75.188 1.01.188.438 0 .667-.063 1.521-.417l.323-.125 4.333 3.323 4.344 3.323-.083.364c-.146.719-.063 1.542.24 2.136.51 1.052 1.458 1.614 2.697 1.614 1.99-.01 3.396-2.062 2.688-3.937l-.198-.5 1.323-1.365 1.323-1.375.406.146c.23.083.708.146 1.083.146.875.01 1.573-.302 2.157-.969 1.687-1.917.354-4.864-2.209-4.864-2.01 0-3.416 1.927-2.781 3.812l.208.615-1.302 1.385c-.719.76-1.312 1.385-1.333 1.385-.01 0-.198-.072-.396-.156-.604-.25-1.708-.208-2.313.104-.28.136-.552.22-.614.188-.115-.073-4.136-3.167-7.031-5.406-1.021-.782-1.604-1.313-1.584-1.407.021-.083.063-.437.094-.791.063-.927-.187-1.615-.854-2.271C28.323.406 27.28.146 26.156.5Zm1.521 1.542c1.031.437 1.031 2.01 0 2.5-.937.448-1.948-.198-1.948-1.24 0-.552.209-.917.677-1.198.396-.25.782-.26 1.271-.062Zm20.198 3.51c.583.459.75 1.23.375 1.834-.552.916-1.98.854-2.427-.105-.219-.448-.219-.698-.031-1.166.312-.73 1.468-1.042 2.083-.563ZM20.72 9.542c.281.302.344.458.344.844 0 .885-.521 1.437-1.365 1.437-1.125 0-1.781-1.375-1.063-2.219.365-.437.605-.531 1.22-.479.437.031.572.094.864.417Zm20.49 2.885c1.062.834.562 2.49-.761 2.49-.844 0-1.406-.542-1.406-1.344 0-.854.52-1.354 1.406-1.365.333 0 .563.063.76.22Z"/><path d="M24.73 11.823c-.126.073-.313.25-.418.386-.156.24-.177.708-.208 5.395-.02 4.282-.052 5.136-.166 5.094a14.671 14.671 0 0 0-.584-.187c-.229-.073-.469-.209-.52-.302-.199-.365-.761-.521-1.865-.521h-1.042l-.219-.49-.218-.49.729-.729c.833-.854.948-1.052.948-1.593 0-.563-.532-1.271-1.75-2.334-.97-.854-1.532-.77-2.73.386l-.718.698-.5-.209-.5-.198-.052-1.198c-.052-1.291-.136-1.5-.667-1.822-.27-.167-.542-.198-1.73-.198-1.582 0-1.874.093-2.26.666-.208.313-.24.48-.24 1.459v1.104l-.447.177c-.24.104-.48.187-.531.187-.052 0-.459-.343-.896-.77-1.219-1.188-1.656-1.178-3.021.104-1.198 1.135-1.563 1.843-1.24 2.468.063.125.448.563.844.97l.73.739-.188.541-.198.532H3.979c-.896 0-1.156.041-1.427.208-.635.385-.708.615-.708 2.24 0 1.28.031 1.5.208 1.823.333.572.76.729 1.98.729h1.051l.177.49.178.478-.73.75c-1.01 1.053-1.166 1.563-.677 2.282.146.208.26.427.26.468 0 .053-.156.51-.354 1.01-1.104 2.876-1.302 6.428-.541 9.449a15.998 15.998 0 0 0 12.333 11.74c3.688.75 7.896.051 11.052-1.834 1.813-1.073 2.23-1.552 1.813-2.104-.365-.49-.74-.438-1.834.27-1.28.824-2.062 1.209-3.333 1.636-1.792.594-2.625.73-4.604.73-1.98 0-2.813-.136-4.604-.73-5.031-1.677-8.698-6.031-9.573-11.406-.198-1.198-.136-3.927.114-5.052.146-.667.636-2.282.75-2.48.032-.051.157.011.282.126.323.302.823.437 1.208.322.177-.052.313-.072.313-.052 0 .021-.136.448-.303.959-.53 1.583-.666 2.573-.604 4.458.063 2.01.334 3.177 1.115 4.813 2.135 4.49 6.437 7.218 11.333 7.218 6.042 0 11.156-4.323 12.271-10.364.25-1.396.156-3.813-.198-5.188-.583-2.208-1.656-4.073-3.292-5.708-.552-.552-1.375-1.25-1.823-1.552-.708-.469-2.062-1.167-2.687-1.386-.156-.052-.167-.114-.083-.333.062-.156.104-.583.104-.948 0-.791-.104-.77 1.291-.187 1.73.729 3.271 1.812 4.709 3.291 1.916 1.99 3.156 4.344 3.76 7.167.26 1.25.26 4.281-.01 5.51-.438 2.032-1.125 3.615-2.302 5.386-.448.666-.782 1.27-.782 1.416 0 .334.407.709.771.709.365 0 .771-.406 1.48-1.48 1.374-2.083 2.229-4.437 2.593-7.197l.063-.49h16.979l.25-.26c.333-.323.333-.719 0-1.042-.23-.23-.333-.26-1.094-.26h-.833v-3.334c0-3.198-.01-3.343-.209-3.541-.312-.313-.864-.282-1.135.062-.208.271-.219.396-.219 3.542v3.27h-2.812l.02-10.447.032-10.438 1.385-.031 1.375-.031v5.562c0 5.469 0 5.573.22 5.844.27.344.822.375 1.135.063.208-.209.208-.344.208-6.178 0-5.729-.01-5.968-.209-6.291-.302-.49-.74-.573-3.01-.531-2.125.03-2.281.072-2.562.666-.136.292-.157 1.74-.157 11.073v10.74h-.729v-8.417c0-8.177-.01-8.417-.208-8.74-.115-.187-.334-.375-.49-.416-.156-.052-1.218-.084-2.343-.084-1.917 0-2.063.01-2.344.22-.157.114-.354.332-.417.468-.104.187-.135 2.177-.135 8.604v8.365h-.729V26.78c0-7.541-.032-10.583-.115-10.75-.292-.572-.386-.593-2.802-.593-1.906 0-2.281.02-2.49.166-.52.375-.531.47-.531 6.26l-.01 5.397-.355-.417-.364-.417V22.73c0-4.187 0-4.166-.719-4.166-.27 0-.458.073-.594.218-.187.209-.198.438-.229 3.23-.02 1.656-.052 3.01-.073 3.01-.031 0-.27-.156-.541-.354a16.935 16.935 0 0 0-1.334-.813l-.833-.458-.031-5.073-.021-5.073h2.791l.042 1.344c.031 1.146.063 1.375.23 1.562.26.282.822.292 1.104.01.187-.187.208-.343.208-1.989v-1.781l-.354-.354-.355-.354h-2.166c-1.542.01-2.25.041-2.417.135Zm-11.407 3.875c.062 1.354.135 1.719.469 2.094.166.187.354.354.416.354.052 0 .417.135.813.313 1.187.52 1.562.406 2.76-.823l.51-.532.605.594c.333.333.604.646.604.708 0 .063-.333.438-.73.834-.77.76-.957 1.135-.822 1.666.167.667.646 1.678.937 1.98.302.302.334.312 1.5.343l1.198.042v1.854H20.47c-1.5 0-1.636.084-2.136 1.313-.625 1.52-.604 1.614.386 2.635.427.448.781.844.781.896 0 .052-.27.364-.594.698l-.593.604-.792-.781c-.823-.792-1.115-.948-1.698-.854-.365.052-1.583.552-1.938.802-.343.24-.52.885-.53 1.896v.895l-.428.073c-.23.042-.625.042-.875.01l-.448-.072-.041-1.136c-.021-.948-.063-1.177-.25-1.427-.282-.364-1.896-1.073-2.47-1.073-.364 0-.489.084-1.218.792-.948.917-1 .927-1.719.125l-.468-.52.77-.824c1.032-1.073 1.063-1.24.51-2.573-.551-1.343-.645-1.416-2.145-1.479l-1.167-.052-.031-.917-.031-.906h1.125c1.583 0 1.635-.031 2.312-1.635.5-1.167.438-1.406-.646-2.51l-.75-.761.657-.636.656-.635.812.802c1.042 1.042 1.282 1.084 2.657.51 1.26-.53 1.354-.677 1.396-2.041.02-.583.052-1.125.072-1.198.042-.094.271-.125.855-.104l.812.031.02.625Zm21.802 11.458c0 9.678-.01 10.157-.188 10.157-.156 0-.197-.167-.312-1.177-.23-2.167-.781-3.97-1.802-5.886l-.51-.958V17h2.812v10.156Zm6.667 2.084v8.073H38.979v-8c0-4.407.031-8.042.073-8.073.031-.042.667-.073 1.406-.073h1.334v8.073ZM21.875 27.27c.48.135 1.042.344 1.26.448.355.187.386.24.344.552-.083.73.781 1.156 1.323.667.208-.188.23-.188.77.24.605.458 1.511 1.385 1.99 2.01l.292.385-.219.281c-.291.375-.27.72.052 1.042.22.23.323.26.625.198.344-.063.365-.042.563.385.302.677.698 2.146.781 2.865l.073.656h-1.208c-1.073 0-1.23.021-1.417.209-.312.312-.281.864.063 1.135.24.187.427.219 1.406.219 1.104 0 1.135.01 1.135.229 0 .479-.395 2.135-.698 2.896l-.291.78-.407-.03c-.75-.073-1.156.666-.687 1.26l.208.26-.395.51a13.03 13.03 0 0 1-1.938 1.928l-.51.406-.23-.218c-.53-.49-1.385-.053-1.27.666.052.344.041.354-.542.615-.625.27-2.02.635-2.844.75l-.5.062V47.49c0-1.042-.02-1.209-.208-1.407-.281-.302-.865-.302-1.146-.02-.188.187-.208.343-.208 1.406 0 1.031-.021 1.198-.167 1.198-.438 0-2.323-.459-2.99-.719-.74-.302-.75-.302-.718-.656.073-.75-.802-1.24-1.282-.709-.104.115-.24.167-.322.126-.448-.25-1.615-1.334-2.136-1.98l-.614-.77.208-.26c.27-.345.26-.657-.01-1.011-.188-.24-.292-.282-.657-.25l-.427.03-.302-.78c-.292-.76-.688-2.417-.688-2.896 0-.219.032-.23 1.136-.23.98 0 1.167-.03 1.406-.218a.779.779 0 0 0 .063-1.136c-.188-.187-.344-.208-1.417-.208H7.906l.073-.604c.115-.969.48-2.198.958-3.23.47-1.02.823-1.582.99-1.582.052 0 .094.5.094 1.114 0 1.25.146 1.656.698 1.938.406.208 1.708.302 2.687.187.76-.094.854-.125 1.167-.469l.344-.375v-1.135c0-1.24 0-1.23.687-1.5l.427-.167.771.782c1.219 1.229 1.688 1.229 2.98.01 1.072-1.01 1.385-1.458 1.385-1.969 0-.552-.115-.74-.959-1.604l-.718-.74.187-.385.188-.396.573.073c.312.042.958.188 1.437.323Z"/><path d="M11.135 19.136a5.154 5.154 0 0 0-3.834 5.02c-.02 4.625 5.521 6.97 8.813 3.74 1.104-1.083 1.698-2.615 1.573-4.094a5.238 5.238 0 0 0-3.886-4.666c-.718-.188-1.979-.188-2.666 0Zm2.864 1.708c1.177.562 2 1.719 2.125 2.99.136 1.25-.541 2.666-1.583 3.364-1.031.677-2.438.823-3.5.344-.646-.281-1.5-1.084-1.813-1.698-.791-1.563-.291-3.656 1.094-4.615.76-.53 1.334-.698 2.302-.656.646.031 1.021.104 1.375.27Z"/><path d="M11.531 22.063c-1.24.677-1.687 1.979-1.093 3.166 1.052 2.073 4.135 1.427 4.343-.906.042-.52.01-.677-.25-1.177-.447-.844-.99-1.188-1.937-1.219-.542-.02-.833.01-1.063.136Zm1.51 1.625c.605.656-.332 1.625-1.02 1.041-.333-.27-.385-.656-.125-.99a.759.759 0 0 1 1.146-.051ZM18.281 37.23c-.458.51-3.468 5.75-3.468 6.041 0 .406.333.708.77.708.459 0 .5-.052 2.146-2.843.698-1.188 1.313-2.188 1.365-2.22.052-.02.823.386 1.729.907 1.802 1.052 2.187 1.167 2.542.73.26-.324.25-.667-.032-.99C22.97 39.177 19.125 37 18.781 37c-.166 0-.375.104-.5.23ZM36.948 40.698c-.48.469-.375.698.854 1.938l1.115 1.135-1.115 1.136c-1.229 1.24-1.354 1.52-.875 1.968.51.48.73.354 2.344-1.26 1.958-1.959 1.958-1.73-.01-3.688-1.626-1.625-1.823-1.729-2.313-1.229ZM42.364 40.698c-.479.469-.375.698.854 1.948l1.115 1.125-1.063 1.073c-1.187 1.188-1.333 1.5-.958 1.98.156.197.313.28.563.28.291 0 .52-.187 1.875-1.552 1.427-1.437 1.541-1.583 1.479-1.854-.042-.187-.615-.833-1.563-1.781-1.625-1.615-1.812-1.719-2.302-1.219ZM47.98 40.563c-.282.135-.49.562-.396.854.03.114.541.698 1.114 1.281l1.052 1.073-.99 1.01c-.551.563-1.051 1.126-1.124 1.25-.26.5.145 1.073.77 1.073.26 0 .542-.229 1.792-1.49 1.219-1.228 1.49-1.551 1.49-1.801 0-.24-.271-.563-1.542-1.834-1.552-1.552-1.698-1.645-2.167-1.416Z"/></g><defs><clipPath id="a"><path fill="#fff" transform="translate(.333 .333)" d="M0 0h53.333v53.333H0z"/></clipPath></defs></svg>