<svg width="49" height="51" fill="none" xmlns="http://www.w3.org/2000/svg"><path d="M21.094.927c-.25.24-.26.292-.26 1.865v1.604l-.699.229c-.395.125-1.166.448-1.729.708l-1.02.47-1.126-1.105c-1.614-1.594-1.406-1.646-3.885.844-2.49 2.479-2.438 2.27-.844 3.885l1.104 1.125-.468 1.02c-.26.563-.584 1.334-.709 1.72L11.23 14H9.625c-1.573 0-1.625.01-1.865.26l-.26.25v5.646l.26.25c.24.25.292.26 1.865.26h1.604l.23.699c.124.395.447 1.166.708 1.729l.468 1.02-1.104 1.126c-1.594 1.614-1.646 1.406.844 3.885 2.48 2.49 2.27 2.438 3.885.844l1.125-1.104 1.021.468c.563.26 1.334.584 1.73.709l.697.229v1.604c0 1.573.01 1.625.26 1.865l.25.26h5.647l.25-.26c.25-.24.26-.292.26-1.865v-1.604l.708-.23c.386-.124 1.157-.447 1.72-.708l1.02-.468 1.125 1.104c1.614 1.593 1.406 1.646 3.885-.844 2.49-2.48 2.438-2.27.844-3.885l-1.104-1.125.469-1.021c.26-.563.583-1.334.708-1.73l.23-.697h1.603c1.573 0 1.625-.01 1.865-.26l.26-.25V14.51l-.26-.25c-.24-.25-.292-.26-1.865-.26h-1.604l-.229-.708c-.125-.386-.448-1.157-.708-1.72l-.47-1.02 1.105-1.125c1.594-1.614 1.646-1.406-.844-3.885-2.479-2.49-2.27-2.438-3.885-.844l-1.125 1.104-1.02-.469c-.563-.26-1.334-.583-1.72-.708l-.708-.23V2.793c0-1.573-.01-1.625-.26-1.865l-.25-.26h-5.646l-.25.26Zm4.74 2.906c0 1.875.02 1.896 1.406 2.26.593.147 1.468.5 2.364.96 1.01.51 1.5.707 1.667.655.135-.03.708-.52 1.281-1.104l1.042-1.042L34.76 6.73l1.178 1.167-1.094 1.114c-.657.657-1.094 1.188-1.094 1.313 0 .114.323.833.708 1.604.459.896.802 1.74.948 2.333.365 1.386.386 1.407 2.26 1.407h1.5V19h-1.5c-1.864 0-1.895.02-2.239 1.354-.135.542-.51 1.459-.969 2.365-.52 1.052-.718 1.541-.677 1.718.042.136.532.709 1.115 1.282l1.041 1.041-1.166 1.167-1.167 1.177-1.114-1.094c-.657-.656-1.188-1.093-1.313-1.093-.114 0-.833.323-1.604.708-.896.458-1.74.802-2.333.948-1.386.364-1.407.385-1.407 2.26v1.5H22.5v-1.5c0-1.854-.02-1.895-1.354-2.24-.51-.135-1.51-.54-2.365-.968-1.052-.52-1.552-.719-1.718-.677-.136.042-.709.531-1.282 1.114l-1.041 1.042-1.167-1.166-1.177-1.167 1.094-1.115c.656-.656 1.093-1.187 1.093-1.312 0-.115-.323-.834-.708-1.604-.458-.896-.802-1.74-.948-2.334-.364-1.385-.385-1.406-2.26-1.406h-1.5v-3.333h1.5c1.864 0 1.896-.021 2.24-1.354.135-.542.51-1.459.968-2.365.52-1.052.719-1.542.677-1.719-.042-.135-.531-.708-1.114-1.281l-1.042-1.042 1.166-1.166 1.167-1.178 1.115 1.094c.656.657 1.187 1.094 1.312 1.094.115 0 .834-.323 1.604-.708.896-.459 1.74-.802 2.334-.948 1.385-.365 1.406-.386 1.406-2.26v-1.5h3.333v1.5Z" fill="#fff"/><path d="M22.604 7.448c-2.26.396-4.219 1.458-5.74 3.104-1.177 1.26-1.937 2.646-2.395 4.386-.313 1.145-.344 3.51-.063 4.624.49 1.938 1.333 3.427 2.781 4.855 1.386 1.375 2.855 2.197 4.75 2.677 1.115.281 3.48.25 4.625-.063 1.948-.52 3.22-1.25 4.636-2.666 1.416-1.417 2.146-2.677 2.677-4.636.333-1.229.333-3.5 0-4.76-.49-1.875-1.313-3.334-2.667-4.677-1.333-1.334-2.812-2.188-4.635-2.657-.927-.24-3.094-.343-3.969-.187Zm2.844 1.667c4.469.687 7.604 4.916 6.958 9.364-.875 5.938-7.49 9.073-12.573 5.948a8.317 8.317 0 0 1-2.062-12.417c1.823-2.229 4.781-3.343 7.677-2.895Z" fill="#fff"/><path d="M23.593 11.76c-.25.24-.26.292-.26 1.771 0 1.302-.02 1.51-.167 1.51-.28 0-1.24 1.053-1.375 1.521-.291.98-.083 1.76.657 2.49 1.062 1.063 2.385 1.063 3.468-.02.292-.293.542-.615.542-.699 0-.146.25-.166 1.927-.166 1.917 0 1.938 0 2.188-.26.343-.334.343-.813 0-1.147-.25-.26-.271-.26-2.188-.26-1.677 0-1.927-.02-1.927-.167 0-.208-1.083-1.291-1.292-1.291-.145 0-.166-.209-.166-1.51 0-1.48-.01-1.532-.26-1.772a.812.812 0 0 0-.574-.26.812.812 0 0 0-.573.26Zm1.146 5c.167.157.26.375.26.573a.812.812 0 0 1-.26.573c-.51.521-1.406.156-1.406-.573 0-.427.406-.833.833-.833.198 0 .417.094.573.26ZM.26 35.917l-.26.26v13.98l.26.26.25.25 15.24-.021c14.802-.032 15.25-.042 15.708-.23.26-.114 3.813-1.916 7.907-4.01 4.822-2.479 7.593-3.948 7.885-4.208.25-.219.583-.656.74-.99.25-.5.291-.729.291-1.427 0-.76-.041-.906-.427-1.729-.541-1.125-.937-1.573-1.74-1.958-.843-.407-1.447-.49-2.218-.292-.365.094-3.073 1.406-6.521 3.146l-5.917 2.979.084-.344c.145-.677.073-1.781-.157-2.281a3.45 3.45 0 0 0-1.573-1.625l-.593-.292-3.74-.03-3.75-.032-.5-.469a5.544 5.544 0 0 0-1.208-.802l-.698-.333-9.406-.032-9.396-.03-.26.26Zm8.907 7.25V49h-7.5V37.333h7.5v5.834Zm9.937-5.709c.302.084.625.323 1.094.802l.667.688 4.041.052c3.875.052 4.052.063 4.323.27.542.407.719.74.719 1.386 0 .5-.052.667-.302.99-.531.698-.448.687-5.896.687h-4.906l-.25.26a.812.812 0 0 0-.26.574c0 .197.093.416.26.572l.25.261h12.229l6.469-3.27c3.552-1.803 6.614-3.303 6.802-3.345.458-.093 1.083.105 1.406.438.354.375.917 1.562.917 1.937 0 .417-.24.917-.584 1.23-.166.145-3.677 2-7.802 4.114l-7.5 3.844-9.968.031-9.98.021V37.333h3.917c2.74 0 4.052.042 4.354.125Z" fill="#fff"/></svg>