<svg width="54" height="54" viewBox="0 0 54 54" fill="none" xmlns="http://www.w3.org/2000/svg">
<g clip-path="url(#clip0_311_733)">
<path d="M26.1563 0.500082C25.4896 0.697999 24.6876 1.43758 24.3959 2.12508C24.1146 2.78133 24.0834 3.73967 24.323 4.31258L24.4896 4.70842L22.9271 6.23967C22.0626 7.09383 21.3126 7.80217 21.2605 7.81258C21.2084 7.83342 20.9688 7.78133 20.7396 7.68758C20.1251 7.43758 19.1355 7.46883 18.5105 7.77092C17.8646 8.06258 17.198 8.78133 16.948 9.42717C16.7188 10.0313 16.7709 11.1459 17.0521 11.7397C17.7501 13.1876 19.5521 13.8126 21.0001 13.1042C22.3542 12.4376 22.9896 10.8647 22.4792 9.42717L22.323 8.98967L23.9376 7.43758L25.5521 5.8855L26.0938 6.073C26.3959 6.17717 26.8438 6.2605 27.1042 6.2605C27.5417 6.2605 27.7709 6.198 28.6251 5.84383L28.948 5.71883L33.2813 9.04175L37.6251 12.3647L37.5417 12.7292C37.3959 13.448 37.4792 14.2709 37.7813 14.8647C38.2917 15.9167 39.2396 16.4792 40.4792 16.4792C42.4688 16.4688 43.8751 14.4167 43.1667 12.5417L42.9688 12.0417L44.2917 10.6772L45.6146 9.30217L46.0209 9.448C46.2501 9.53133 46.7292 9.59383 47.1042 9.59383C47.9792 9.60425 48.6771 9.29175 49.2605 8.62508C50.948 6.70842 49.6146 3.7605 47.0521 3.7605C45.0417 3.7605 43.6355 5.68758 44.2709 7.573L44.4792 8.18758L43.1771 9.573C42.4584 10.3334 41.8646 10.9584 41.8438 10.9584C41.8334 10.9584 41.6459 10.8855 41.448 10.8022C40.8438 10.5522 39.7396 10.5938 39.1355 10.9063C38.8542 11.0417 38.5834 11.1251 38.5209 11.0938C38.4063 11.0209 34.3855 7.92717 31.4896 5.68758C30.4688 4.90633 29.8855 4.37508 29.9063 4.28133C29.9271 4.198 29.9688 3.84383 30.0001 3.48967C30.0626 2.56258 29.8126 1.87508 29.1459 1.21883C28.323 0.406332 27.2813 0.145916 26.1563 0.500082ZM27.6771 2.04175C28.7084 2.47925 28.7084 4.05217 27.6771 4.54175C26.7396 4.98967 25.7292 4.34383 25.7292 3.30217C25.7292 2.75008 25.9376 2.3855 26.4063 2.10425C26.8021 1.85425 27.1876 1.84383 27.6771 2.04175ZM47.8751 5.55217C48.4584 6.0105 48.6251 6.78133 48.2501 7.3855C47.698 8.30217 46.2709 8.23967 45.823 7.28133C45.6042 6.83342 45.6042 6.58342 45.7917 6.11467C46.1042 5.3855 47.2605 5.073 47.8751 5.55217ZM20.7188 9.54175C21.0001 9.84383 21.0626 10.0001 21.0626 10.3855C21.0626 11.2709 20.5417 11.823 19.698 11.823C18.573 11.823 17.9167 10.448 18.6355 9.60425C19.0001 9.16675 19.2396 9.073 19.8542 9.12508C20.2917 9.15633 20.4271 9.21883 20.7188 9.54175ZM41.2084 12.4272C42.2709 13.2605 41.7709 14.9167 40.448 14.9167C39.6042 14.9167 39.0417 14.3751 39.0417 13.573C39.0417 12.7188 39.5626 12.2188 40.448 12.2084C40.7813 12.2084 41.0105 12.2709 41.2084 12.4272Z" fill="white"/>
<path d="M24.7292 11.8231C24.6042 11.896 24.4167 12.0731 24.3125 12.2085C24.1562 12.4481 24.1354 12.9168 24.1042 17.6043C24.0833 21.8856 24.0521 22.7398 23.9375 22.6981C23.8542 22.6668 23.5937 22.5835 23.3542 22.5106C23.125 22.4377 22.8854 22.3023 22.8333 22.2085C22.6354 21.8439 22.0729 21.6877 20.9687 21.6877H19.9271L19.7083 21.1981L19.4896 20.7085L20.2187 19.9793C21.0521 19.1252 21.1667 18.9273 21.1667 18.3856C21.1667 17.8231 20.6354 17.1148 19.4167 16.0523C18.4479 15.1981 17.8854 15.2814 16.6875 16.4377L15.9687 17.1356L15.4687 16.9273L14.9687 16.7293L14.9167 15.5314C14.8646 14.2398 14.7812 14.0314 14.25 13.7085C13.9792 13.5418 13.7083 13.5106 12.5208 13.5106C10.9375 13.5106 10.6458 13.6043 10.2604 14.1773C10.0521 14.4898 10.0208 14.6564 10.0208 15.6356V16.7398L9.57292 16.9168C9.33333 17.021 9.09375 17.1043 9.04167 17.1043C8.98958 17.1043 8.58333 16.7606 8.14583 16.3335C6.92708 15.146 6.48958 15.1564 5.125 16.4377C3.92708 17.5731 3.5625 18.2814 3.88542 18.9064C3.94792 19.0314 4.33333 19.4689 4.72917 19.8752L5.45833 20.6148L5.27083 21.1564L5.07292 21.6877H3.97917C3.08333 21.6877 2.82292 21.7293 2.55208 21.896C1.91667 22.2814 1.84375 22.5106 1.84375 24.1356C1.84375 25.4168 1.875 25.6356 2.05208 25.9585C2.38542 26.5314 2.8125 26.6877 4.03125 26.6877H5.08333L5.26042 27.1773L5.4375 27.6564L4.70833 28.4064C3.69792 29.4585 3.54167 29.9689 4.03125 30.6877C4.17708 30.896 4.29167 31.1148 4.29167 31.1564C4.29167 31.2085 4.13542 31.6668 3.9375 32.1668C2.83333 35.0418 2.63542 38.5939 3.39583 41.6148C4.90625 47.5731 9.69792 52.1252 15.7292 53.3543C19.4167 54.1043 23.625 53.4064 26.7812 51.521C28.5937 50.4481 29.0104 49.9689 28.5937 49.4168C28.2292 48.9273 27.8542 48.9793 26.7604 49.6877C25.4792 50.5106 24.6979 50.896 23.4271 51.3231C21.6354 51.9168 20.8021 52.0523 18.8229 52.0523C16.8437 52.0523 16.0104 51.9168 14.2187 51.3231C9.1875 49.646 5.52083 45.2918 4.64583 39.9168C4.44792 38.7189 4.51042 35.9898 4.76042 34.8648C4.90625 34.1981 5.39583 32.5835 5.51042 32.3856C5.54167 32.3335 5.66667 32.396 5.79167 32.5106C6.11458 32.8127 6.61458 32.9481 7 32.8335C7.17708 32.7814 7.3125 32.7606 7.3125 32.7814C7.3125 32.8023 7.17708 33.2293 7.01042 33.7398C6.47917 35.3231 6.34375 36.3127 6.40625 38.1981C6.46875 40.2085 6.73958 41.3752 7.52083 43.0106C9.65625 47.5002 13.9583 50.2293 18.8542 50.2293C24.8958 50.2293 30.0104 45.9064 31.125 39.8648C31.375 38.4689 31.2812 36.0523 30.9271 34.6773C30.3437 32.4689 29.2708 30.6043 27.6354 28.9689C27.0833 28.4168 26.2604 27.7189 25.8125 27.4168C25.1042 26.9481 23.75 26.2502 23.125 26.0314C22.9687 25.9793 22.9583 25.9168 23.0417 25.6981C23.1042 25.5418 23.1458 25.1148 23.1458 24.7502C23.1458 23.9585 23.0417 23.9793 24.4375 24.5627C26.1667 25.2918 27.7083 26.3752 29.1458 27.8543C31.0625 29.8439 32.3021 32.1981 32.9062 35.021C33.1667 36.271 33.1667 39.3023 32.8958 40.5314C32.4583 42.5627 31.7708 44.146 30.5937 45.9168C30.1458 46.5835 29.8125 47.1877 29.8125 47.3335C29.8125 47.6668 30.2187 48.0418 30.5833 48.0418C30.9479 48.0418 31.3542 47.6356 32.0625 46.5627C33.4375 44.4793 34.2917 42.1252 34.6562 39.3648L34.7187 38.8752H43.2083H51.6979L51.9479 38.6148C52.2812 38.2918 52.2812 37.896 51.9479 37.5731C51.7187 37.3439 51.6146 37.3127 50.8542 37.3127H50.0208V33.9793C50.0208 30.7814 50.0104 30.6356 49.8125 30.4377C49.5 30.1252 48.9479 30.1564 48.6771 30.5002C48.4687 30.771 48.4583 30.896 48.4583 34.0418V37.3127H47.0521H45.6458L45.6667 26.8648L45.6979 16.4273L47.0833 16.396L48.4583 16.3648V21.9273C48.4583 27.396 48.4583 27.5002 48.6771 27.771C48.9479 28.1148 49.5 28.146 49.8125 27.8335C50.0208 27.6252 50.0208 27.4898 50.0208 21.6564C50.0208 15.9273 50.0104 15.6877 49.8125 15.3648C49.5104 14.8752 49.0729 14.7918 46.8021 14.8335C44.6771 14.8648 44.5208 14.9064 44.2396 15.5002C44.1042 15.7918 44.0833 17.2398 44.0833 26.5731V37.3127H43.7187H43.3542V28.896C43.3542 20.7189 43.3437 20.4793 43.1458 20.1564C43.0312 19.9689 42.8125 19.7814 42.6562 19.7398C42.5 19.6877 41.4375 19.6564 40.3125 19.6564C38.3958 19.6564 38.25 19.6668 37.9687 19.8752C37.8125 19.9898 37.6146 20.2085 37.5521 20.3439C37.4479 20.5314 37.4167 22.521 37.4167 28.9481V37.3127H37.0521H36.6875V26.7814C36.6875 19.2398 36.6562 16.1981 36.5729 16.0314C36.2812 15.4585 36.1875 15.4377 33.7708 15.4377C31.8646 15.4377 31.4896 15.4585 31.2812 15.6043C30.7604 15.9793 30.75 16.0731 30.75 21.8648L30.7396 27.2606L30.3854 26.8439L30.0208 26.4273V22.7293C30.0208 18.5418 30.0208 18.5627 29.3021 18.5627C29.0312 18.5627 28.8437 18.6356 28.7083 18.7814C28.5208 18.9898 28.5104 19.2189 28.4792 22.0106C28.4583 23.6668 28.4271 25.021 28.4062 25.021C28.375 25.021 28.1354 24.8648 27.8646 24.6668C27.5833 24.4689 26.9896 24.1043 26.5312 23.8543L25.6979 23.396L25.6667 18.3231L25.6458 13.2502H27.0417H28.4375L28.4792 14.5939C28.5104 15.7398 28.5417 15.9689 28.7083 16.1564C28.9687 16.4377 29.5312 16.4481 29.8125 16.1668C30 15.9793 30.0208 15.8231 30.0208 14.1773V12.396L29.6667 12.0418L29.3125 11.6877H27.1458C25.6042 11.6981 24.8958 11.7293 24.7292 11.8231ZM13.3229 15.6981C13.3854 17.0523 13.4583 17.4168 13.7917 17.7918C13.9583 17.9793 14.1458 18.146 14.2083 18.146C14.2604 18.146 14.625 18.2814 15.0208 18.4585C16.2083 18.9793 16.5833 18.8648 17.7812 17.6356L18.2917 17.1043L18.8958 17.6981C19.2292 18.0314 19.5 18.3439 19.5 18.4064C19.5 18.4689 19.1667 18.8439 18.7708 19.2398C18 20.0002 17.8125 20.3752 17.9479 20.9064C18.1146 21.5731 18.5937 22.5835 18.8854 22.8856C19.1875 23.1877 19.2187 23.1981 20.3854 23.2293L21.5833 23.271V24.1981V25.1252H20.4687C18.9687 25.1252 18.8333 25.2085 18.3333 26.4377C17.7083 27.9585 17.7292 28.0523 18.7187 29.0731C19.1458 29.521 19.5 29.9168 19.5 29.9689C19.5 30.021 19.2292 30.3335 18.9062 30.6668L18.3125 31.271L17.5208 30.4898C16.6979 29.6981 16.4062 29.5418 15.8229 29.6356C15.4583 29.6877 14.2396 30.1877 13.8854 30.4377C13.5417 30.6773 13.3646 31.3231 13.3542 32.3335V33.2293L12.9271 33.3023C12.6979 33.3439 12.3021 33.3439 12.0521 33.3127L11.6042 33.2398L11.5625 32.1043C11.5417 31.1564 11.5 30.9273 11.3125 30.6773C11.0312 30.3127 9.41667 29.6043 8.84375 29.6043C8.47917 29.6043 8.35417 29.6877 7.625 30.396C6.67708 31.3127 6.625 31.3231 5.90625 30.521L5.4375 30.0002L6.20833 29.1773C7.23958 28.1043 7.27083 27.9377 6.71875 26.6043C6.16667 25.2606 6.07292 25.1877 4.57292 25.1252L3.40625 25.0731L3.375 24.1564L3.34375 23.2502H4.46875C6.05208 23.2502 6.10417 23.2189 6.78125 21.6148C7.28125 20.4481 7.21875 20.2085 6.13542 19.1043L5.38542 18.3439L6.04167 17.7085L6.69792 17.0731L7.51042 17.8752C8.55208 18.9168 8.79167 18.9585 10.1667 18.3856C11.4271 17.8543 11.5208 17.7085 11.5625 16.3439C11.5833 15.7606 11.6146 15.2189 11.6354 15.146C11.6771 15.0523 11.9062 15.021 12.4896 15.0418L13.3021 15.0731L13.3229 15.6981ZM35.125 27.1564C35.125 36.8335 35.1146 37.3127 34.9375 37.3127C34.7812 37.3127 34.7396 37.146 34.625 36.1356C34.3958 33.9689 33.8437 32.1668 32.8229 30.2502L32.3125 29.2918V23.146V17.0002H33.7187H35.125V27.1564ZM41.7917 29.2398V37.3127H40.3854H38.9792V29.3127C38.9792 24.9064 39.0104 21.271 39.0521 21.2398C39.0833 21.1981 39.7187 21.1668 40.4583 21.1668H41.7917V29.2398ZM21.875 27.271C22.3542 27.4064 22.9167 27.6148 23.1354 27.7189C23.4896 27.9064 23.5208 27.9585 23.4792 28.271C23.3958 29.0002 24.2604 29.4273 24.8021 28.9377C25.0104 28.7502 25.0312 28.7502 25.5729 29.1773C26.1771 29.6356 27.0833 30.5627 27.5625 31.1877L27.8542 31.5731L27.6354 31.8543C27.3437 32.2293 27.3646 32.5731 27.6875 32.896C27.9062 33.1252 28.0104 33.1564 28.3125 33.0939C28.6562 33.0314 28.6771 33.0523 28.875 33.4793C29.1771 34.1564 29.5729 35.6252 29.6562 36.3439L29.7292 37.0002H28.5208C27.4479 37.0002 27.2917 37.021 27.1042 37.2085C26.7917 37.521 26.8229 38.0731 27.1667 38.3439C27.4062 38.5314 27.5937 38.5627 28.5729 38.5627C29.6771 38.5627 29.7083 38.5731 29.7083 38.7918C29.7083 39.271 29.3125 40.9273 29.0104 41.6877L28.7187 42.4689L28.3125 42.4377C27.5625 42.3648 27.1562 43.1043 27.625 43.6981L27.8333 43.9585L27.4375 44.4689C26.9271 45.1148 26.1458 45.8856 25.5 46.396L24.9896 46.8023L24.7604 46.5835C24.2292 46.0939 23.375 46.5314 23.4896 47.2502C23.5417 47.5939 23.5312 47.6043 22.9479 47.8648C22.3229 48.1356 20.9271 48.5002 20.1042 48.6148L19.6042 48.6773V47.4898C19.6042 46.4481 19.5833 46.2814 19.3958 46.0835C19.1146 45.7814 18.5312 45.7814 18.25 46.0627C18.0625 46.2502 18.0417 46.4064 18.0417 47.4689C18.0417 48.5002 18.0208 48.6668 17.875 48.6668C17.4375 48.6668 15.5521 48.2085 14.8854 47.9481C14.1458 47.646 14.1354 47.646 14.1667 47.2918C14.2396 46.5418 13.3646 46.0523 12.8854 46.5835C12.7812 46.6981 12.6458 46.7502 12.5625 46.7085C12.1146 46.4585 10.9479 45.3752 10.4271 44.7293L9.8125 43.9585L10.0208 43.6981C10.2917 43.3543 10.2812 43.0418 10.0104 42.6877C9.82292 42.4481 9.71875 42.4064 9.35417 42.4377L8.92708 42.4689L8.625 41.6877C8.33333 40.9273 7.9375 39.271 7.9375 38.7918C7.9375 38.5731 7.96875 38.5627 9.07292 38.5627C10.0521 38.5627 10.2396 38.5314 10.4792 38.3439C10.8229 38.0731 10.8542 37.521 10.5417 37.2085C10.3542 37.021 10.1979 37.0002 9.125 37.0002H7.90625L7.97917 36.396C8.09375 35.4273 8.45833 34.1981 8.9375 33.1668C9.40625 32.146 9.76042 31.5835 9.92708 31.5835C9.97917 31.5835 10.0208 32.0835 10.0208 32.6981C10.0208 33.9481 10.1667 34.3543 10.7187 34.6356C11.125 34.8439 12.4271 34.9377 13.4062 34.8231C14.1667 34.7293 14.2604 34.6981 14.5729 34.3543L14.9167 33.9793V32.8439C14.9167 31.6043 14.9167 31.6148 15.6042 31.3439L16.0312 31.1773L16.8021 31.9585C18.0208 33.1877 18.4896 33.1877 19.7812 31.9689C20.8542 30.9585 21.1667 30.5106 21.1667 30.0002C21.1667 29.4481 21.0521 29.2606 20.2083 28.396L19.4896 27.6564L19.6771 27.271L19.8646 26.8752L20.4375 26.9481C20.75 26.9898 21.3958 27.1356 21.875 27.271Z" fill="white"/>
<path d="M11.1347 19.1356C8.84299 19.7606 7.30133 21.7814 7.30133 24.1564C7.28049 28.7814 12.8222 31.1251 16.1138 27.896C17.218 26.8127 17.8117 25.2814 17.6867 23.8022C17.5097 21.5627 15.9472 19.6981 13.8013 19.1356C13.0826 18.9481 11.8222 18.9481 11.1347 19.1356ZM13.9992 20.8439C15.1763 21.4064 15.9992 22.5627 16.1242 23.8335C16.2597 25.0835 15.5826 26.5002 14.5409 27.1981C13.5097 27.8752 12.1034 28.021 11.0409 27.5418C10.3951 27.2606 9.54091 26.4585 9.22841 25.8439C8.43674 24.2814 8.93674 22.1877 10.3222 21.2293C11.0826 20.6981 11.6555 20.5314 12.6242 20.5731C13.2701 20.6043 13.6451 20.6772 13.9992 20.8439Z" fill="white"/>
<path d="M11.5314 22.0627C10.2918 22.7398 9.84392 24.0418 10.4377 25.2293C11.4898 27.3023 14.5731 26.6564 14.7814 24.3231C14.8231 23.8023 14.7918 23.646 14.5314 23.146C14.0835 22.3023 13.5418 21.9585 12.5939 21.9273C12.0523 21.9064 11.7606 21.9377 11.5314 22.0627ZM13.0418 23.6877C13.646 24.3439 12.7085 25.3127 12.021 24.7293C11.6877 24.4585 11.6356 24.0731 11.896 23.7398C12.1877 23.3752 12.7293 23.3543 13.0418 23.6877Z" fill="white"/>
<path d="M18.2812 37.2294C17.8229 37.7398 14.8125 42.9794 14.8125 43.271C14.8125 43.6773 15.1458 43.9794 15.5833 43.9794C16.0417 43.9794 16.0833 43.9273 17.7292 41.1356C18.4271 39.9481 19.0417 38.9481 19.0937 38.9169C19.1458 38.896 19.9167 39.3023 20.8229 39.8231C22.625 40.8752 23.0104 40.9898 23.3646 40.5523C23.625 40.2294 23.6146 39.8856 23.3333 39.5627C22.9687 39.1773 19.125 37.0002 18.7812 37.0002C18.6146 37.0002 18.4062 37.1044 18.2812 37.2294Z" fill="white"/>
<path d="M36.948 40.6981C36.4688 41.1669 36.573 41.3961 37.8022 42.6356L38.9167 43.7711L37.8022 44.9065C36.573 46.1461 36.448 46.4273 36.9272 46.8752C37.4376 47.3544 37.6563 47.2294 39.2709 45.6148C41.2292 43.6565 41.2292 43.8856 39.2605 41.9273C37.6355 40.3023 37.4376 40.1981 36.948 40.6981Z" fill="white"/>
<path d="M42.3642 40.6981C41.885 41.1669 41.9892 41.396 43.2183 42.646L44.3329 43.771L43.2704 44.844C42.0829 46.0315 41.9371 46.344 42.3121 46.8231C42.4683 47.021 42.6246 47.1044 42.8746 47.1044C43.1663 47.1044 43.3954 46.9169 44.7496 45.5523C46.1767 44.1148 46.2913 43.969 46.2288 43.6981C46.1871 43.5106 45.6142 42.8648 44.6663 41.9169C43.0413 40.3023 42.8538 40.1981 42.3642 40.6981Z" fill="white"/>
<path d="M47.9794 40.5627C47.6982 40.6981 47.4898 41.1252 47.5836 41.4169C47.6148 41.5315 48.1253 42.1148 48.6982 42.6981L49.7503 43.771L48.7607 44.7815C48.2086 45.344 47.7086 45.9065 47.6357 46.0315C47.3753 46.5315 47.7815 47.1044 48.4065 47.1044C48.6669 47.1044 48.9482 46.8752 50.1982 45.6148C51.4169 44.3856 51.6878 44.0627 51.6878 43.8127C51.6878 43.5731 51.4169 43.2502 50.1461 41.9794C48.594 40.4273 48.4482 40.3335 47.9794 40.5627Z" fill="white"/>
</g>
<defs>
<clipPath id="clip0_311_733">
<rect width="53.3333" height="53.3333" fill="white" transform="translate(0.333252 0.333374)"/>
</clipPath>
</defs>
</svg>
