<svg width="54" height="54" fill="none" xmlns="http://www.w3.org/2000/svg"><g clip-path="url(#a)" fill="#fff"><path d="M1.99 2.563A2.37 2.37 0 0 0 .676 3.646l-.292.49-.031 8.104c-.021 8.083-.021 8.094.198 8.614.24.563.76 1.084 1.302 1.313.281.114 1.219.146 4.573.146 4.083 0 4.229-.01 4.427-.209.26-.26.27-.74.01-1.052l-.198-.25-4.187-.052-4.188-.052-.198-.25c-.187-.23-.197-.5-.197-6.688V7.314H22.833v1.656c0 1.708.094 2.229.417 2.406.312.167.708.125.937-.104.208-.208.219-.313.188-3.75l-.032-3.52-.312-.46c-.365-.51-.854-.864-1.396-1.02-.604-.167-20.167-.135-20.646.042ZM22.572 4.24c.218.208.26.354.26.885v.625H1.896v-.583c0-.5.041-.615.302-.886L2.5 3.98h19.823l.25.26Z"/><path d="M5.781 10.02c-.49.199-.583.813-.187 1.199l.25.26h6.573c6.427 0 6.562 0 6.77-.208.313-.313.282-.865-.062-1.136-.27-.218-.354-.218-6.698-.208-3.531 0-6.52.042-6.646.094ZM29.041 10.135a.779.779 0 0 0-.062 1.136c.208.208.344.208 9.698.208h9.49l.301.302c.26.271.302.386.302.886v.583h-5.562c-5.458 0-5.563 0-5.833.219a.779.779 0 0 0-.063 1.135c.209.209.344.209 5.834.209h5.624v5.604c0 6.229.032 5.958-.708 6.166-.208.052-.979.105-1.708.105-1.198 0-1.354.02-1.542.208-.26.26-.27.77-.01 1.031.114.115.375.24.583.281.636.115 2.98-.01 3.386-.187.53-.23 1.02-.667 1.28-1.167.23-.427.23-.437.261-7.562.021-5.427 0-7.25-.104-7.605-.177-.666-1.01-1.479-1.667-1.645-.354-.094-3-.125-9.854-.125-9.323 0-9.364 0-9.646.218ZM8.23 13.406a.721.721 0 0 0-.209 1.084l.198.27 4.125.032c4.021.02 4.136.02 4.344-.188a.779.779 0 0 0-.063-1.135c-.27-.208-.385-.219-4.197-.219-3.22.01-3.97.031-4.198.156Z"/><path d="M25.75 13.313c-3.104.375-5.687 1.322-7.948 2.927-1.093.77-2.874 2.552-3.645 3.646-1.313 1.843-2.354 4.333-2.74 6.541-.27 1.542-.25 4.021.042 5.542 1.135 5.75 5.156 10.333 10.666 12.156 2.167.708 4.97.958 7.084.615l.385-.053.031 2.657.032 2.656.312.458c.375.521.865.875 1.417 1.021.26.073 3.875.094 10.479.084 11.188-.032 10.323.02 11.063-.72.729-.728.687-.103.718-9.083.021-8.083.021-8.093-.198-8.614-.24-.563-.76-1.083-1.302-1.313-.281-.114-1.281-.145-4.937-.145h-4.594l.083-.709c.136-1.156.073-3.427-.125-4.552-.74-4.302-3.343-8.25-6.979-10.594-1.698-1.104-3.969-1.99-5.885-2.312-.99-.177-3.271-.292-3.959-.208Zm3.802 1.76c5 .875 9.344 4.646 10.97 9.542.52 1.593.687 2.718.676 4.625-.01.916-.062 1.833-.104 2.03l-.094.366h-.875c-.53 0-.875-.042-.864-.105.354-2.26.187-4.52-.5-6.52-.51-1.49-1.667-3.459-2.146-3.646-.333-.125-.75.062-.969.458-.177.323-.25.156.709 1.719.593.968 1.073 2.198 1.323 3.416.208 1 .24 2.928.062 3.97l-.135.76H34.52c-3.406 0-3.573.03-4.219.687-.635.646-.645.646-.697 4.104l-.053 3.177-.52.136c-.782.208-3.157.187-4.157-.021-1.229-.27-2.458-.75-3.416-1.333-1.417-.865-1.427-.865-1.74-.698-.375.208-.562.625-.437.958.229.604 2.823 1.98 4.52 2.417 1.532.385 2.959.51 4.344.364a63.158 63.158 0 0 0 1.292-.135c.135-.021.219 1.583.083 1.718-.198.199-2.49.334-3.75.209-6.479-.636-11.531-5.23-12.791-11.646-.282-1.385-.25-3.917.052-5.354 1.073-5.073 4.708-9.136 9.573-10.719.854-.281 2.072-.531 3.25-.677.656-.083 2.74.031 3.697.198Zm22.292 18.438c.219.208.26.354.26.885v.625H31.168v-.646c0-.52.042-.687.23-.885l.218-.24h19.98l.25.26Zm.26 9.489v6.417l-.301.302-.303.302H31.677l-.25-.26-.26-.25V36.582h20.938V43Z"/><path d="M25.73 16.688c-4.022.458-7.5 2.708-9.511 6.145a12.311 12.311 0 0 0-.365 11.72c1.021 2.051 1.542 2.582 2.156 2.187.136-.094.302-.282.365-.417.125-.281.094-.354-.73-1.698-1.02-1.677-1.51-3.48-1.5-5.594 0-1.406.147-2.302.553-3.5 1.26-3.687 4.573-6.51 8.427-7.187 1.052-.177 2.99-.157 4 .062 1.208.25 2.448.73 3.417 1.323 1.562.959 1.395.886 1.718.709.396-.22.584-.636.459-.97-.198-.5-2.198-1.655-3.792-2.187-1.583-.531-3.646-.77-5.198-.593Z"/><path d="M26.74 20.021c-.406.156-.521.417-.51 1.177 0 .625.03.75.239.917a.955.955 0 0 0 .531.198.955.955 0 0 0 .532-.198c.208-.167.24-.292.24-.927.01-.615-.032-.782-.199-.948-.26-.25-.562-.334-.833-.219ZM21.739 23.354a.754.754 0 0 0-.5.74c0 .27.26.583 1.792 2.114 1.687 1.688 1.791 1.823 1.677 2.042-.209.385-.156 1.396.104 1.927.802 1.646 3.208 1.802 4.187.26l.303-.468 3.166-.052c3.094-.052 3.177-.063 3.396-.282.281-.28.302-.78.042-1.073-.177-.197-.313-.208-3.355-.208h-3.156l-.323-.52c-.458-.75-1.166-1.146-2.052-1.146-.364 0-.76.052-.875.114-.198.104-.396-.062-2-1.656-.979-.969-1.875-1.792-1.99-1.823a.716.716 0 0 0-.416.031Zm5.854 5.125c.636.594-.052 1.74-.875 1.427-.375-.135-.541-.396-.552-.812a.84.84 0 0 1 1.427-.615ZM18.093 28.563c-.26.291-.24.791.042 1.073.188.198.344.229.958.229.646 0 .76-.031.938-.25.26-.313.25-.792-.01-1.052-.303-.302-1.657-.302-1.928 0ZM26.47 36.052c-.209.167-.24.292-.24.948-.01.698.01.76.281 1 .354.302.583.313.938.042.333-.26.458-.928.291-1.542-.177-.646-.77-.854-1.27-.448ZM34.812 39.396a.779.779 0 0 0 .063 1.135c.27.22.364.22 6.677.22 5.406 0 6.437-.022 6.687-.157.48-.24.563-.688.209-1.136l-.209-.27h-6.614c-6.47 0-6.605 0-6.813.208ZM37.333 42.73a.759.759 0 0 0 .052 1.145c.27.208.343.219 4.312.188 4.448-.032 4.292-.01 4.427-.678.052-.27.01-.385-.198-.593l-.27-.271h-4.053c-3.927 0-4.052.01-4.27.208ZM34.832 46.094c-.323.344-.302.833.042 1.104.27.219.364.219 6.781.219h6.5l.25-.26c.146-.136.26-.376.26-.521 0-.146-.114-.386-.26-.521l-.25-.26H35.051l-.219.239ZM5.802 16.698c-.51.292-.604.73-.25 1.177l.209.27h3.698c3.552 0 3.697-.01 3.895-.207.26-.26.271-.74.01-1.052l-.197-.25-3.583-.021c-2.48-.021-3.636.01-3.782.083ZM41.718 17.52c-.458.188-.593.897-.239 1.25.198.199.344.21 2.23.21h2.03l.209-.272c.125-.156.218-.343.218-.416 0-.271-.24-.646-.49-.76-.301-.136-3.614-.146-3.958-.011ZM43.927 20.854c-.51.198-.667.855-.313 1.25.167.177.323.209 1.157.209.916 0 .979-.01 1.177-.271.125-.157.219-.344.219-.417 0-.302-.26-.666-.553-.77-.364-.126-1.385-.126-1.687 0ZM5.176 30.167c-.48.208-.98.666-1.23 1.146-.228.427-.228.427-.26 7.604-.03 8.093-.052 7.802.74 8.583.802.792.219.75 10.802.75 9.406 0 9.448 0 9.73-.219a.779.779 0 0 0 .062-1.135c-.209-.208-.344-.208-9.698-.208h-9.49l-.302-.303-.302-.302V34.927l2.302-.031c2.271-.031 2.302-.031 2.5-.281.26-.313.25-.792-.01-1.052-.198-.198-.344-.209-2.51-.209H5.206l.042-.687c.062-1.032.167-1.084 1.906-1.084 1.438 0 1.969-.104 2.136-.416.166-.313.125-.709-.105-.938-.187-.187-.343-.208-1.947-.208-1.209.01-1.844.052-2.063.146Z"/><path d="M8.052 38.625c-.25.313-.271.448-.104.813.197.416.562.5 2.124.458 1.355-.031 1.438-.042 1.626-.281.27-.334.25-.76-.042-1.032-.23-.218-.344-.229-1.813-.229H8.26l-.208.271ZM8.073 41.958c-.209.209-.25.323-.198.594.135.646.104.646 3.187.677l2.813.032.26-.26c.334-.334.344-.782.021-1.084-.24-.219-.312-.23-3.031-.23H8.344l-.271.271Z"/></g><defs><clipPath id="a"><path fill="#fff" transform="translate(.333 .333)" d="M0 0h53.333v53.333H0z"/></clipPath></defs></svg>