<svg width="120" height="41" fill="none" xmlns="http://www.w3.org/2000/svg"><g clip-path="url(#a)"><path d="M110.135.908H9.535c-.367 0-.73 0-1.095.002-.306.002-.61.007-.919.012C6.85.93 6.18.99 5.517 1.1a6.665 6.665 0 0 0-1.9.627A6.438 6.438 0 0 0 .193 6.429a12.993 12.993 0 0 0-.179 2.002c-.01.307-.01.614-.015.92v23.115c.005.31.006.611.015.922.008.671.068 1.34.18 2.002.11.663.32 1.305.624 1.904.303.599.701 1.144 1.179 1.615.473.477 1.019.875 1.618 1.178.599.305 1.24.517 1.901.631.663.109 1.333.168 2.004.177.31.007.613.01.919.01.366.003.728.003 1.095.003h100.6c.359 0 .724 0 1.084-.002.304 0 .617-.004.922-.011.67-.009 1.338-.068 2-.177a6.808 6.808 0 0 0 1.908-.63 6.296 6.296 0 0 0 1.617-1.18 6.405 6.405 0 0 0 1.182-1.614c.302-.6.51-1.241.619-1.904.111-.662.173-1.33.185-2.002.004-.31.004-.611.004-.922.008-.363.008-.724.008-1.094V10.444c0-.367 0-.73-.008-1.092 0-.307 0-.614-.004-.921a13.57 13.57 0 0 0-.185-2.002 6.648 6.648 0 0 0-.619-1.903 6.469 6.469 0 0 0-2.799-2.8 6.77 6.77 0 0 0-1.908-.627c-.661-.11-1.33-.17-2-.177-.305-.005-.618-.01-.922-.013-.36-.002-.725-.002-1.084-.002Z" fill="#A6A6A6"/><path d="M8.445 40.033c-.305 0-.602-.004-.904-.011a12.682 12.682 0 0 1-1.87-.163 5.884 5.884 0 0 1-1.656-.548 5.406 5.406 0 0 1-1.397-1.017 5.32 5.32 0 0 1-1.02-1.396 5.722 5.722 0 0 1-.544-1.657 12.413 12.413 0 0 1-.166-1.875c-.007-.211-.015-.913-.015-.913V9.352s.009-.691.015-.894a12.37 12.37 0 0 1 .165-1.873 5.755 5.755 0 0 1 .544-1.662 5.566 5.566 0 0 1 4.07-2.964c.62-.101 1.248-.156 1.876-.164l.902-.012h102.769l.913.012a12.37 12.37 0 0 1 1.858.163 5.933 5.933 0 0 1 1.671.548 5.589 5.589 0 0 1 2.415 2.42c.261.52.441 1.075.536 1.649.103.624.161 1.254.173 1.887.003.283.003.587.003.89.008.375.008.732.008 1.092v20.928c0 .364 0 .718-.008 1.076 0 .325 0 .623-.004.93-.011.62-.068 1.24-.171 1.853a5.716 5.716 0 0 1-.54 1.67 5.47 5.47 0 0 1-1.015 1.386c-.409.413-.881.759-1.4 1.022a5.852 5.852 0 0 1-1.668.55c-.618.1-1.243.155-1.869.163-.293.007-.599.01-.897.01l-1.084.003-101.69-.002Z" fill="#000"/><path d="M24.769 21.208a4.947 4.947 0 0 1 2.357-4.152 5.066 5.066 0 0 0-3.992-2.158c-1.679-.176-3.307 1.005-4.163 1.005-.872 0-2.19-.987-3.608-.958a5.315 5.315 0 0 0-4.473 2.728c-1.934 3.349-.491 8.27 1.361 10.976.927 1.325 2.01 2.806 3.428 2.753 1.387-.057 1.905-.884 3.58-.884 1.658 0 2.144.884 3.59.851 1.489-.024 2.426-1.331 3.32-2.669a10.96 10.96 0 0 0 1.52-3.092 4.782 4.782 0 0 1-2.92-4.4ZM22.037 13.118a4.872 4.872 0 0 0 1.115-3.49 4.957 4.957 0 0 0-3.208 1.66 4.635 4.635 0 0 0-1.143 3.36 4.099 4.099 0 0 0 3.236-1.53ZM42.303 28.047h-4.734l-1.137 3.357h-2.005l4.484-12.418h2.083l4.483 12.418h-2.039l-1.136-3.357ZM38.059 26.5h3.752l-1.85-5.448h-.051L38.06 26.5ZM55.16 26.877c0 2.814-1.506 4.622-3.778 4.622a3.07 3.07 0 0 1-2.849-1.584h-.043v4.484h-1.858V22.35h1.799v1.506h.034a3.213 3.213 0 0 1 2.882-1.6c2.298 0 3.813 1.816 3.813 4.621Zm-1.91 0c0-1.833-.947-3.038-2.393-3.038-1.42 0-2.375 1.23-2.375 3.038 0 1.825.955 3.046 2.375 3.046 1.446 0 2.393-1.196 2.393-3.046ZM65.125 26.877c0 2.814-1.506 4.622-3.779 4.622a3.07 3.07 0 0 1-2.848-1.584h-.043v4.484h-1.859V22.35h1.8v1.506h.033a3.212 3.212 0 0 1 2.883-1.6c2.298 0 3.813 1.816 3.813 4.621Zm-1.91 0c0-1.833-.948-3.038-2.393-3.038-1.42 0-2.375 1.23-2.375 3.038 0 1.825.955 3.046 2.375 3.046 1.445 0 2.393-1.196 2.393-3.046ZM71.71 27.944c.138 1.231 1.335 2.04 2.97 2.04 1.566 0 2.693-.809 2.693-1.92 0-.963-.68-1.54-2.29-1.936l-1.609-.387c-2.28-.551-3.339-1.617-3.339-3.348 0-2.143 1.868-3.614 4.52-3.614 2.623 0 4.422 1.471 4.483 3.614H77.26c-.112-1.24-1.136-1.987-2.633-1.987s-2.522.757-2.522 1.858c0 .878.654 1.395 2.255 1.79l1.368.336c2.548.603 3.607 1.626 3.607 3.442 0 2.324-1.85 3.779-4.794 3.779-2.754 0-4.614-1.421-4.734-3.667h1.903ZM83.346 20.207v2.143h1.722v1.472h-1.722v4.991c0 .775.345 1.137 1.102 1.137.204-.004.408-.018.611-.043v1.463c-.34.063-.686.092-1.032.085-1.833 0-2.548-.688-2.548-2.444v-5.19h-1.316v-1.47h1.316v-2.143h1.867ZM86.065 26.877c0-2.848 1.678-4.638 4.294-4.638 2.625 0 4.295 1.79 4.295 4.638 0 2.857-1.661 4.64-4.295 4.64-2.633 0-4.294-1.783-4.294-4.64Zm6.695 0c0-1.954-.895-3.107-2.4-3.107-1.507 0-2.401 1.162-2.401 3.107 0 1.962.894 3.107 2.4 3.107 1.506 0 2.401-1.145 2.401-3.107ZM96.186 22.35h1.773v1.541h.043a2.16 2.16 0 0 1 2.177-1.635c.215-.001.428.022.637.069v1.738a2.596 2.596 0 0 0-.835-.112 1.872 1.872 0 0 0-1.936 2.083v5.37h-1.859V22.35ZM109.385 28.745c-.25 1.643-1.851 2.771-3.899 2.771-2.634 0-4.268-1.764-4.268-4.596 0-2.84 1.643-4.681 4.19-4.681 2.505 0 4.08 1.72 4.08 4.466v.636h-6.394v.113a2.353 2.353 0 0 0 1.458 2.391c.31.126.643.185.977.173a2.05 2.05 0 0 0 2.091-1.273h1.765Zm-6.283-2.703h4.527a2.184 2.184 0 0 0-1.345-2.134 2.182 2.182 0 0 0-.876-.163 2.293 2.293 0 0 0-2.306 2.297ZM37.826 9.638a2.64 2.64 0 0 1 2.808 2.965c0 1.906-1.03 3.002-2.808 3.002h-2.155V9.638h2.155Zm-1.228 5.123h1.125a1.875 1.875 0 0 0 1.967-2.146 1.881 1.881 0 0 0-1.967-2.133h-1.125v4.28ZM41.68 13.352a2.133 2.133 0 1 1 4.248 0 2.134 2.134 0 1 1-4.247 0Zm3.334 0c0-.976-.439-1.547-1.208-1.547-.773 0-1.207.57-1.207 1.547 0 .984.434 1.55 1.207 1.55.77 0 1.208-.57 1.208-1.55ZM51.573 15.605h-.922l-.93-3.316h-.07l-.927 3.316h-.913l-1.242-4.503h.902l.806 3.436h.067l.925-3.436h.853l.926 3.436h.07l.803-3.436h.889l-1.237 4.503ZM53.853 11.102h.856v.716h.066a1.348 1.348 0 0 1 1.344-.803 1.464 1.464 0 0 1 1.559 1.675v2.915h-.889v-2.692c0-.723-.314-1.083-.972-1.083a1.034 1.034 0 0 0-1.075 1.141v2.634h-.889v-4.503ZM59.094 9.344h.888v6.261h-.888v-6.26ZM61.218 13.352a2.134 2.134 0 1 1 4.247 0 2.133 2.133 0 1 1-4.247 0Zm3.333 0c0-.976-.439-1.547-1.208-1.547-.773 0-1.207.57-1.207 1.547 0 .984.434 1.55 1.207 1.55.77 0 1.208-.57 1.208-1.55ZM66.4 14.332c0-.81.604-1.278 1.676-1.345l1.22-.07v-.388c0-.476-.315-.745-.922-.745-.497 0-.84.183-.939.5h-.86c.09-.773.818-1.269 1.84-1.269 1.128 0 1.765.562 1.765 1.514v3.076h-.855v-.633h-.07a1.515 1.515 0 0 1-1.353.707 1.36 1.36 0 0 1-1.501-1.347Zm2.895-.385v-.376l-1.1.07c-.62.041-.9.252-.9.65 0 .404.351.64.834.64a1.062 1.062 0 0 0 1.166-.984ZM71.348 13.352c0-1.423.732-2.324 1.87-2.324a1.483 1.483 0 0 1 1.38.79h.067V9.344h.888v6.261h-.851v-.711h-.07a1.564 1.564 0 0 1-1.415.785c-1.145 0-1.869-.9-1.869-2.327Zm.918 0c0 .955.45 1.53 1.203 1.53.75 0 1.212-.583 1.212-1.526 0-.939-.468-1.53-1.212-1.53-.748 0-1.203.579-1.203 1.526ZM79.23 13.352a2.134 2.134 0 1 1 4.247 0 2.134 2.134 0 1 1-4.247 0Zm3.333 0c0-.976-.439-1.547-1.208-1.547-.772 0-1.207.57-1.207 1.547 0 .984.435 1.55 1.207 1.55.77 0 1.208-.57 1.208-1.55ZM84.67 11.102h.855v.716h.066a1.348 1.348 0 0 1 1.344-.803 1.464 1.464 0 0 1 1.559 1.675v2.915h-.889v-2.692c0-.723-.315-1.083-.972-1.083a1.034 1.034 0 0 0-1.075 1.141v2.634h-.889v-4.503ZM93.515 9.981v1.142h.976v.748h-.976v2.316c0 .472.195.678.637.678.113 0 .226-.007.339-.02v.74c-.16.028-.322.043-.484.045-.988 0-1.382-.348-1.382-1.216v-2.543h-.714v-.748h.715V9.98h.89ZM95.705 9.344h.88v2.482h.07a1.385 1.385 0 0 1 1.374-.807 1.482 1.482 0 0 1 1.55 1.679v2.907h-.889v-2.688c0-.719-.335-1.083-.963-1.083a1.052 1.052 0 0 0-1.134 1.141v2.63h-.888v-6.26ZM104.761 14.39a1.828 1.828 0 0 1-1.951 1.302 2.044 2.044 0 0 1-2.08-2.324 2.077 2.077 0 0 1 2.076-2.353c1.253 0 2.009.856 2.009 2.27v.31h-3.18v.05a1.191 1.191 0 0 0 1.199 1.29 1.08 1.08 0 0 0 1.072-.546h.855Zm-3.126-1.452h2.275a1.09 1.09 0 0 0-1.109-1.166 1.146 1.146 0 0 0-.829.337 1.163 1.163 0 0 0-.337.83Z" fill="#fff"/></g><defs><clipPath id="a"><path fill="#fff" transform="translate(0 .908)" d="M0 0h119.664v40H0z"/></clipPath></defs></svg>