<svg width="51" height="51" fill="none" xmlns="http://www.w3.org/2000/svg"><path fill="#E5E5E5" d="M0 0h51v51H0z"/><g clip-path="url(#a)"><path fill="#fff" d="M-660-4715H940V486H-660z"/><g filter="url(#b)"><circle cx="25.278" cy="25.63" r="25.278" fill="#3D5A96"/><path fill-rule="evenodd" clip-rule="evenodd" d="M26.988 36H22.39v-9.794h-2.297v-3.774h2.297v-2.264c0-3.077 1.297-4.909 4.983-4.909h3.068v3.775h-1.917c-1.435 0-1.53.527-1.53 1.511l-.006 1.887h3.475l-.407 3.774h-3.068V36Z" fill="#fff"/></g></g><path d="M-1503.5-363.5c-2.5 0-4.5 2-4.5 4.5s2 4.5 4.5 4.5 4.5-2 4.5-4.5-2-4.5-4.5-4.5Z" fill="#fff"/><path d="M1098.06 693.061c.59-.586.59-1.536 0-2.122l-9.55-9.546a1.5 1.5 0 0 0-2.12 0 1.511 1.511 0 0 0 0 2.122l8.49 8.485-8.49 8.485a1.511 1.511 0 0 0 0 2.122 1.5 1.5 0 0 0 2.12 0l9.55-9.546ZM-1506.5-359c0-1.672 1.33-3 3-3v-3c-3.33 0-6 2.672-6 6h3Zm3-3c1.67 0 3 1.328 3 3h3c0-3.328-2.67-6-6-6v3Zm3 3c0 1.672-1.33 3-3 3v3c3.33 0 6-2.672 6-6h-3Zm-3 3c-1.67 0-3-1.328-3-3h-3c0 3.328 2.67 6 6 6v-3Zm-1.5 1.5V672h3V-354.5h-3Zm21.5 1048H1097v-3h-2580.5v3ZM-1505 672c0 11.874 9.63 21.5 21.5 21.5v-3c-10.22 0-18.5-8.283-18.5-18.5h-3Z" fill="#000"/><defs><clipPath id="a"><path fill="#fff" transform="translate(-660 -4715)" d="M0 0h1600v5201H0z"/></clipPath><filter id="b" x="-15.556" y="-7.426" width="81.667" height="81.667" filterUnits="userSpaceOnUse" color-interpolation-filters="sRGB"><feFlood flood-opacity="0" result="BackgroundImageFix"/><feColorMatrix in="SourceAlpha" values="0 0 0 0 0 0 0 0 0 0 0 0 0 0 0 0 0 0 127 0" result="hardAlpha"/><feOffset dy="7.778"/><feGaussianBlur stdDeviation="7.778"/><feColorMatrix values="0 0 0 0 0 0 0 0 0 0 0 0 0 0 0 0 0 0 0.1 0"/><feBlend in2="BackgroundImageFix" result="effect1_dropShadow_199_738"/><feBlend in="SourceGraphic" in2="effect1_dropShadow_199_738" result="shape"/></filter></defs></svg>