<svg width="52" height="51" fill="none" xmlns="http://www.w3.org/2000/svg"><path fill="#E5E5E5" d="M0 0h52v51H0z"/><g clip-path="url(#a)"><path fill="#fff" d="M-812-4715H788V486H-812z"/><g filter="url(#b)"><circle cx="26.241" cy="25.63" r="25.278" fill="#007AB7"/><path fill-rule="evenodd" clip-rule="evenodd" d="M21.224 21.934H17.46v12.122h3.764V21.934Zm.308-3.84a2.183 2.183 0 1 0-4.366 0 2.183 2.183 0 1 0 4.366 0Zm5.66 3.84h-3.596v12.122h3.757v-5.998c0-1.577.294-3.111 2.253-3.111 1.93 0 1.952 1.808 1.952 3.216v5.893h3.757v-6.643c0-3.265-.707-5.773-4.513-5.773-1.833 0-3.057 1.002-3.56 1.954h-.05v-1.66Z" fill="#fff"/></g></g><path d="M-1655.5-363.5c-2.5 0-4.5 2-4.5 4.5s2 4.5 4.5 4.5 4.5-2 4.5-4.5-2-4.5-4.5-4.5Z" fill="#fff"/><path d="M946.061 693.061a1.502 1.502 0 0 0 0-2.122l-9.546-9.546a1.502 1.502 0 0 0-2.122 0 1.502 1.502 0 0 0 0 2.122l8.486 8.485-8.486 8.485a1.502 1.502 0 0 0 0 2.122 1.502 1.502 0 0 0 2.122 0l9.546-9.546ZM-1658.5-359c0-1.672 1.33-3 3-3v-3c-3.33 0-6 2.672-6 6h3Zm3-3c1.67 0 3 1.328 3 3h3c0-3.328-2.67-6-6-6v3Zm3 3c0 1.672-1.33 3-3 3v3c3.33 0 6-2.672 6-6h-3Zm-3 3c-1.67 0-3-1.328-3-3h-3c0 3.328 2.67 6 6 6v-3Zm-1.5 1.5V672h3V-354.5h-3Zm21.5 1048H945v-3h-2580.5v3ZM-1657 672c0 11.874 9.63 21.5 21.5 21.5v-3c-10.22 0-18.5-8.283-18.5-18.5h-3Z" fill="#000"/><defs><clipPath id="a"><path fill="#fff" transform="translate(-812 -4715)" d="M0 0h1600v5201H0z"/></clipPath><filter id="b" x="-14.593" y="-7.426" width="81.667" height="81.667" filterUnits="userSpaceOnUse" color-interpolation-filters="sRGB"><feFlood flood-opacity="0" result="BackgroundImageFix"/><feColorMatrix in="SourceAlpha" values="0 0 0 0 0 0 0 0 0 0 0 0 0 0 0 0 0 0 127 0" result="hardAlpha"/><feOffset dy="7.778"/><feGaussianBlur stdDeviation="7.778"/><feColorMatrix values="0 0 0 0 0 0 0 0 0 0 0 0 0 0 0 0 0 0 0.1 0"/><feBlend in2="BackgroundImageFix" result="effect1_dropShadow_199_738"/><feBlend in="SourceGraphic" in2="effect1_dropShadow_199_738" result="shape"/></filter></defs></svg>