<svg width="54" height="54" fill="none" xmlns="http://www.w3.org/2000/svg"><path d="M16.218.522c-.947.281-1.625.667-2.27 1.312-.667.667-1.053 1.292-1.334 2.188-.24.781-.281 3.635-.052 4.48.198.739.636 1.562 1.115 2.082.312.344.406.521.406.813v.364l-3.167 1.063c-1.854.615-3.302 1.156-3.51 1.313-.48.354-.906 1.01-.98 1.53-.093.667-.01 15.095.095 15.355l.083.24H4.28c-1.281 0-2.5.052-2.719.104-.469.135-1.094.802-1.177 1.27-.031.188-.052 2.042-.031 4.115.031 3.636.042 3.781.25 4.063.114.156.375.395.562.52.344.24.344.24 4.907.24h4.572V51.887H3.772v1.77h46.458v-1.771h-2.417l-2.427-.01.406-.23c.22-.124.802-.51 1.292-.853a15.427 15.427 0 0 0 5.198-18.959 15.582 15.582 0 0 0-7.208-7.49c-.625-.312-1.417-.645-1.74-.75-.333-.103-.604-.218-.604-.26 0-.03.125-.291.281-.572.24-.428.292-.636.292-1.24-.01-.896-.271-1.52-.875-2.115-.396-.385-1.188-.718-8.667-3.708l-8.23-3.292-2.28-.385c-2.25-.365-2.292-.386-2.292-.625 0-.146.208-.5.49-.844 1.01-1.24 1.343-2.49 1.25-4.708-.073-1.906-.47-2.906-1.563-3.99C19.802.532 17.916.022 16.218.522ZM19 2.387c.677.333 1.302.979 1.625 1.666.26.542.28.719.312 2.156.031 1.417.01 1.636-.198 2.188-.614 1.646-2.479 2.583-4.156 2.094-1.146-.334-2.135-1.407-2.385-2.584-.25-1.125-.105-3.25.27-3.979.375-.719 1.282-1.469 2.115-1.74.52-.166 1.896-.051 2.417.199Zm-2.052 9.906c.583.083 1.395.02 2.062-.146.281-.073.281-.073.281.437v.51l2.886.49 2.885.49 7.969 3.177c8.792 3.51 8.552 3.386 8.552 4.26 0 .376-.063.521-.313.771-.343.355-.843.48-1.302.344-.177-.052-3.323-1.219-7.01-2.604l-6.688-2.51H22.73v34.375h-4.375V28.761H16.687v23.125h-4.271V41.573h.25c.302 0 .854-.365 1.146-.76.209-.282.219-.428.25-4.115.021-2.531 0-3.948-.083-4.208-.146-.51-.636-.99-1.156-1.125l-.407-.115V17.512h-1.771v6.416c0 5.75-.02 6.448-.166 6.709-.521.875-1.823.802-2.271-.136-.156-.344-.167-.99-.146-7.51.031-7.01.031-7.146.24-7.354.135-.126 1.625-.678 3.854-1.428l3.646-1.229.031-.458c.031-.406.052-.438.26-.375.125.031.51.104.855.146Zm13.885 8.781c4.396 1.646 4.792 1.813 4.48 1.885-1.386.365-2.345.657-3.095.959-2.864 1.166-5.468 3.416-7.27 6.291l-.553.875V19.282h.813c.792-.01.885.021 5.625 1.792Zm8.594 3.417c5.364.52 9.74 3.896 11.677 9.01.583 1.51.729 2.469.74 4.583 0 1.532-.042 2.177-.188 2.865-1.167 5.396-5.302 9.531-10.698 10.698-.688.146-1.333.187-2.865.187-1.718-.01-2.104-.041-2.968-.25-2.5-.625-4.646-1.78-6.396-3.448-5.625-5.364-5.73-14.229-.23-19.687 2.553-2.542 5.834-3.927 9.542-4.042.198-.01.823.032 1.386.084Zm-29.354 9.593c-2.01 1.344-2.22 1.448-2.865 1.448-.646 0-.854-.104-2.865-1.448l-1.562-1.052h8.854l-1.562 1.052ZM3.76 35.772c2 1.333 2.344 1.48 3.5 1.48 1.125-.011 1.313-.084 3.427-1.5.781-.532 1.49-.99 1.573-1.022.136-.041.156.323.156 2.563v2.614H2.104v-2.614c0-2.052.031-2.594.135-2.532.063.042.75.5 1.521 1.01Zm21.052 10.146c1.136 2.031 3.083 4.031 5.26 5.396l.917.572H24.395v-3.28c0-1.803.021-3.282.042-3.282s.198.27.375.594Z" fill="#fff"/><path d="M36.636 26.23c-1.99.25-4.334 1.25-5.896 2.5l-.385.302.27.302c.146.178.396.47.552.646l.292.344.76-.552a14.615 14.615 0 0 1 1.605-.938c.854-.395 2.635-.906 3.177-.906h.302v2.5h1.771v-2.52l.583.072c3.48.427 6.77 3.052 8.115 6.459.25.625.666 2.343.677 2.729 0 .104-.323.135-1.25.135h-1.25v1.771h2.51l-.073.49c-.25 1.75-1.031 3.635-2.01 4.864-.177.219-.323.438-.323.469.01.094 1.146 1 1.25 1 .177 0 1.02-1.219 1.51-2.146 2.438-4.708 1.604-10.291-2.125-14.041-1.791-1.803-4-2.948-6.51-3.396-.834-.146-2.74-.188-3.552-.084ZM28.803 30.637c-1.052 1.291-1.948 3.177-2.386 4.968-.229.98-.312 3.136-.156 4.198.396 2.657 1.573 5.021 3.459 6.886 3.75 3.729 9.333 4.562 14.041 2.125.927-.49 2.146-1.334 2.146-1.51 0-.105-.906-1.24-1-1.25-.031 0-.25.145-.469.322-1.229.98-3.114 1.76-4.854 2.01l-.5.073v-2.51h-1.771v1.25c0 .927-.031 1.25-.125 1.25-.396-.01-2.114-.427-2.74-.677-2.395-.948-4.551-2.98-5.624-5.292-.407-.875-.73-1.979-.834-2.823l-.073-.583h2.521v-1.771h-2.5v-.302c0-.541.51-2.323.907-3.177.218-.458.645-1.177.937-1.604l.552-.76-.344-.292a10.116 10.116 0 0 0-.645-.552l-.313-.26-.23.28Z" fill="#fff"/><path d="M37.313 35.636v3.438h4.27v-1.771h-2.5V32.2h-1.771v3.438ZM.333 52.772v.885H2.114l-.03-.864-.032-.854-.854-.032-.865-.03v.895ZM51.969 51.96c-.042.03-.073.437-.073.885v.812h1.771v-1.771h-.813c-.448 0-.854.032-.885.073Z" fill="#fff"/></svg>