<svg width="51" height="51" fill="none" xmlns="http://www.w3.org/2000/svg"><path fill="#E5E5E5" d="M0 0h51v51H0z"/><g clip-path="url(#a)"><path fill="#fff" d="M-889-4715H711V486H-889z"/><g filter="url(#b)"><circle cx="25.722" cy="25.63" r="25.278" fill="#F52929"/><path fill-rule="evenodd" clip-rule="evenodd" d="M36.222 17.917c.684.783.926 2.557.926 2.557s.241 2.104.241 4.207v1.939a42.02 42.02 0 0 1-.241 4.165s-.242 1.774-.926 2.558c-.841.941-1.792 1.024-2.264 1.066l-.069.006c-3.259.289-8.167.289-8.167.289s-6.074-.041-7.925-.248c-.098-.023-.22-.04-.357-.06-.595-.086-1.499-.216-2.218-1.053-.683-.784-.925-2.558-.925-2.558s-.241-2.062-.241-4.165V24.68c0-2.103.241-4.207.241-4.207s.201-1.773.925-2.557c.842-.942 1.793-1.025 2.265-1.067l.069-.006c3.258-.247 8.166-.288 8.166-.288s4.908.04 8.167.288l.11.01c.484.038 1.405.11 2.223 1.063ZM22.906 30.414v-8.95l7.644 4.578-7.644 4.372Z" fill="#fff"/></g></g><path d="M-1732.5-363.5c-2.5 0-4.5 2-4.5 4.5s2 4.5 4.5 4.5 4.5-2 4.5-4.5-2-4.5-4.5-4.5Z" fill="#fff"/><path d="M869.061 693.061a1.502 1.502 0 0 0 0-2.122l-9.546-9.546a1.502 1.502 0 0 0-2.122 0 1.502 1.502 0 0 0 0 2.122l8.486 8.485-8.486 8.485a1.502 1.502 0 0 0 0 2.122 1.502 1.502 0 0 0 2.122 0l9.546-9.546ZM-1735.5-359c0-1.672 1.33-3 3-3v-3c-3.33 0-6 2.672-6 6h3Zm3-3c1.67 0 3 1.328 3 3h3c0-3.328-2.67-6-6-6v3Zm3 3c0 1.672-1.33 3-3 3v3c3.33 0 6-2.672 6-6h-3Zm-3 3c-1.67 0-3-1.328-3-3h-3c0 3.328 2.67 6 6 6v-3Zm-1.5 1.5V672h3V-354.5h-3Zm21.5 1048H868v-3h-2580.5v3ZM-1734 672c0 11.874 9.63 21.5 21.5 21.5v-3c-10.22 0-18.5-8.283-18.5-18.5h-3Z" fill="#000"/><defs><clipPath id="a"><path fill="#fff" transform="translate(-889 -4715)" d="M0 0h1600v5201H0z"/></clipPath><filter id="b" x="-15.111" y="-7.426" width="81.667" height="81.667" filterUnits="userSpaceOnUse" color-interpolation-filters="sRGB"><feFlood flood-opacity="0" result="BackgroundImageFix"/><feColorMatrix in="SourceAlpha" values="0 0 0 0 0 0 0 0 0 0 0 0 0 0 0 0 0 0 127 0" result="hardAlpha"/><feOffset dy="7.778"/><feGaussianBlur stdDeviation="7.778"/><feColorMatrix values="0 0 0 0 0 0 0 0 0 0 0 0 0 0 0 0 0 0 0.1 0"/><feBlend in2="BackgroundImageFix" result="effect1_dropShadow_199_738"/><feBlend in="SourceGraphic" in2="effect1_dropShadow_199_738" result="shape"/></filter></defs></svg>