<svg width="52" height="51" fill="none" xmlns="http://www.w3.org/2000/svg"><path fill="#E5E5E5" d="M0 0h52v51H0z"/><g clip-path="url(#a)"><path fill="#fff" d="M-736-4715H864V486H-736z"/><g filter="url(#b)"><circle cx="25.759" cy="25.63" r="25.278" fill="#2AA3EF"/><path fill-rule="evenodd" clip-rule="evenodd" d="M36.13 19.198a8.534 8.534 0 0 1-2.444.671 4.267 4.267 0 0 0 1.87-2.353 8.503 8.503 0 0 1-2.703 1.031 4.255 4.255 0 0 0-7.25 3.881 12.08 12.08 0 0 1-8.77-4.445 4.224 4.224 0 0 0-.575 2.139c0 1.476.751 2.778 1.892 3.54a4.22 4.22 0 0 1-1.926-.532v.054c0 2.061 1.465 3.78 3.412 4.171a4.249 4.249 0 0 1-1.921.073 4.262 4.262 0 0 0 3.975 2.955 8.549 8.549 0 0 1-5.286 1.82c-.343 0-.682-.02-1.015-.059a12.042 12.042 0 0 0 6.523 1.912c7.826 0 12.107-6.483 12.107-12.104 0-.186-.005-.368-.012-.55A8.65 8.65 0 0 0 36.13 19.2v-.002Z" fill="#fff"/></g></g><path d="M-1579.5-363.5c-2.5 0-4.5 2-4.5 4.5s2 4.5 4.5 4.5 4.5-2 4.5-4.5-2-4.5-4.5-4.5Z" fill="#fff"/><path d="M1022.06 693.061c.59-.586.59-1.536 0-2.122l-9.55-9.546a1.5 1.5 0 0 0-2.12 0 1.511 1.511 0 0 0 0 2.122l8.49 8.485-8.49 8.485a1.511 1.511 0 0 0 0 2.122 1.5 1.5 0 0 0 2.12 0l9.55-9.546ZM-1582.5-359c0-1.672 1.33-3 3-3v-3c-3.33 0-6 2.672-6 6h3Zm3-3c1.67 0 3 1.328 3 3h3c0-3.328-2.67-6-6-6v3Zm3 3c0 1.672-1.33 3-3 3v3c3.33 0 6-2.672 6-6h-3Zm-3 3c-1.67 0-3-1.328-3-3h-3c0 3.328 2.67 6 6 6v-3Zm-1.5 1.5V672h3V-354.5h-3Zm21.5 1048H1021v-3h-2580.5v3ZM-1581 672c0 11.874 9.63 21.5 21.5 21.5v-3c-10.22 0-18.5-8.283-18.5-18.5h-3Z" fill="#000"/><defs><clipPath id="a"><path fill="#fff" transform="translate(-736 -4715)" d="M0 0h1600v5201H0z"/></clipPath><filter id="b" x="-15.074" y="-7.426" width="81.667" height="81.667" filterUnits="userSpaceOnUse" color-interpolation-filters="sRGB"><feFlood flood-opacity="0" result="BackgroundImageFix"/><feColorMatrix in="SourceAlpha" values="0 0 0 0 0 0 0 0 0 0 0 0 0 0 0 0 0 0 127 0" result="hardAlpha"/><feOffset dy="7.778"/><feGaussianBlur stdDeviation="7.778"/><feColorMatrix values="0 0 0 0 0 0 0 0 0 0 0 0 0 0 0 0 0 0 0.1 0"/><feBlend in2="BackgroundImageFix" result="effect1_dropShadow_199_738"/><feBlend in="SourceGraphic" in2="effect1_dropShadow_199_738" result="shape"/></filter></defs></svg>